<?xml version="1.0" standalone="no"?>
<!DOCTYPE svg PUBLIC "-//W3C//DTD SVG 20010904//EN"
 "http://www.w3.org/TR/2001/REC-SVG-20010904/DTD/svg10.dtd">
<svg version="1.0" xmlns="http://www.w3.org/2000/svg"
 width="612.000000pt" height="374.000000pt" viewBox="0 0 612.000000 374.000000"
 preserveAspectRatio="xMidYMid meet">

<g transform="translate(0.000000,374.000000) scale(0.100000,-0.100000)"
fill="#000000" stroke="none">
<path d="M2689 3660 c-216 -168 -367 -326 -492 -517 -269 -408 -344 -868 -205
-1261 153 -434 525 -709 932 -689 180 8 332 71 460 188 73 66 73 48 0 -25
-100 -99 -212 -155 -367 -182 -176 -31 -355 -2 -533 86 -124 61 -197 115 -296
218 -199 208 -311 474 -337 800 -9 112 1 334 20 460 6 41 8 86 4 100 -7 27 -8
26 -66 -38 -41 -45 -77 -100 -114 -175 -101 -203 -137 -356 -139 -597 0 -87
-2 -158 -4 -158 -2 0 -23 42 -47 93 -83 177 -145 384 -191 637 l-24 135 5 -95
c20 -347 148 -750 323 -1015 201 -304 488 -541 762 -629 435 -139 891 -14
1159 319 29 36 31 37 19 10 -32 -75 -133 -187 -228 -252 -112 -76 -262 -133
-416 -159 -128 -21 -360 -14 -485 15 -187 43 -392 131 -589 255 -58 36 -111
66 -118 66 -25 0 -24 -32 3 -103 45 -118 136 -279 214 -381 9 -12 51 -57 94
-100 l78 -79 -67 7 c-75 8 -330 71 -443 110 -41 14 -76 24 -78 22 -5 -5 140
-69 250 -110 358 -133 690 -158 1023 -77 154 38 229 67 394 152 297 152 508
354 600 575 123 296 114 601 -25 844 -21 36 -43 74 -49 85 -6 12 -27 41 -46
65 -19 25 -26 38 -16 30 30 -24 102 -122 140 -192 56 -101 85 -199 96 -323 17
-196 -12 -364 -91 -518 -28 -54 -52 -107 -54 -117 -9 -49 -80 -175 -146 -260
-40 -52 -75 -97 -79 -100 -3 -3 -16 -22 -28 -42 l-23 -37 53 -15 c29 -8 87
-23 128 -32 41 -9 86 -21 100 -27 14 -5 30 -11 35 -11 6 -1 19 -6 30 -13 17
-10 18 -14 6 -37 -22 -40 -147 -204 -213 -279 -33 -37 -58 -70 -56 -72 9 -9
277 264 359 365 184 227 224 294 257 430 38 154 47 232 46 415 0 146 -4 199
-22 282 -44 205 -114 363 -227 516 -36 48 -65 91 -65 96 0 16 -133 130 -201
172 -89 55 -204 101 -264 105 -296 24 -386 14 -545 -64 -168 -81 -286 -224
-330 -398 -59 -231 26 -450 222 -571 63 -39 73 -49 31 -31 -96 42 -188 135
-239 241 -155 328 58 725 451 839 67 19 102 23 215 22 116 -1 148 -5 223 -28
170 -51 297 -128 431 -259 134 -132 235 -294 292 -464 27 -84 64 -364 64 -488
-1 -97 -26 -298 -41 -327 -22 -40 -87 -267 -77 -270 5 -2 -2 -38 -15 -81 -16
-48 -21 -79 -15 -83 6 -4 7 -31 3 -69 l-6 -63 43 -29 c24 -16 151 -83 283
-147 352 -173 365 -179 365 -188 0 -4 6 -7 13 -5 9 1 12 -17 12 -66 l0 -67 77
0 76 0 48 73 c26 39 51 74 56 75 4 2 8 8 8 13 0 9 38 68 51 79 3 3 16 27 28
53 28 57 29 117 5 311 -49 409 -153 782 -313 1129 -22 48 -43 87 -46 87 -3 0
-1 -9 6 -21 14 -28 19 -100 6 -92 -6 4 -8 0 -5 -9 12 -31 -43 -5 -76 36 -28
35 -116 180 -116 192 0 12 -150 250 -198 314 -200 269 -421 440 -689 534 -572
198 -1169 -70 -1289 -580 -23 -98 -15 -285 16 -373 29 -81 108 -199 168 -251
68 -59 187 -116 273 -130 107 -18 184 -5 324 54 l40 17 -25 -20 c-71 -58 -249
-87 -373 -61 -133 27 -292 142 -366 264 -78 130 -110 280 -91 429 53 402 398
708 857 758 262 28 519 -29 821 -183 138 -70 182 -88 182 -73 0 12 -28 54 -80
119 -58 74 -202 193 -317 263 -61 37 -271 144 -333 170 -24 10 -24 11 14 18
99 20 427 -10 666 -60 14 -3 -2 4 -35 15 -91 30 -268 68 -380 81 -159 19 -414
7 -560 -26 -573 -129 -944 -498 -995 -990 -19 -179 24 -379 112 -530 23 -40
76 -105 123 -151 129 -128 287 -196 460 -196 141 -1 265 42 371 128 35 28 51
38 44 25 -13 -25 -99 -91 -157 -120 -69 -34 -152 -52 -248 -53 -109 0 -205 21
-300 67 -302 145 -478 489 -435 850 23 190 80 342 194 513 101 151 230 276
460 442 41 30 76 61 76 68 0 24 -55 35 -180 35 -146 -1 -228 -13 -353 -53 -50
-16 -93 -27 -96 -25 -8 9 138 189 226 281 48 50 126 125 173 167 47 42 82 77
78 77 -3 0 -53 -36 -109 -80z m620 -1182 c30 -5 49 -13 42 -17 -6 -4 -46 -1
-89 6 -175 31 -368 -26 -489 -145 -113 -112 -159 -229 -151 -387 3 -49 2 -81
-3 -70 -14 36 -10 189 7 246 37 127 139 248 261 311 142 74 253 89 422 56z
m96 -28 c13 -6 15 -9 5 -9 -8 0 -22 4 -30 9 -18 12 -2 12 25 0z m-169 -61 c68
-13 113 -34 49 -24 -107 18 -149 21 -215 14 -80 -9 -175 -48 -243 -101 l-42
-32 30 33 c35 38 151 98 215 110 65 13 138 13 206 0z m-93 -50 c31 -7 57 -16
57 -20 0 -5 33 -25 74 -44 86 -41 146 -101 183 -185 22 -48 25 -70 26 -180 1
-109 -2 -131 -21 -174 -31 -69 -92 -146 -121 -153 -13 -3 -49 -23 -80 -45 -89
-63 -184 -81 -291 -57 -25 5 -49 15 -55 22 -5 7 -45 30 -89 51 -65 32 -85 48
-121 97 -60 82 -72 130 -71 274 2 98 6 128 23 165 27 59 99 150 119 150 8 0
34 13 57 29 113 77 189 94 310 70z m418 -146 c13 -16 12 -17 -3 -4 -17 13 -22
21 -14 21 2 0 10 -8 17 -17z m77 -118 c42 -85 62 -158 69 -250 9 -132 -34
-327 -88 -395 -16 -20 -15 -15 6 31 91 202 87 435 -10 630 -20 41 -30 67 -22
59 9 -8 29 -42 45 -75z m-103 -15 c43 -84 58 -164 52 -265 -6 -94 -35 -206
-62 -240 -17 -20 -17 -20 -9 0 86 232 83 354 -14 548 -2 4 -1 7 2 7 3 0 17
-23 31 -50z m-26 -209 c2 -93 -5 -71 -11 34 -3 50 -2 77 2 60 4 -16 8 -59 9
-94z m-12 -105 c-6 -35 -47 -139 -53 -133 -2 2 8 30 21 63 14 32 25 69 25 82
0 12 3 22 6 22 4 0 4 -15 1 -34z"/>
<path d="M3645 3381 c-78 -12 -15 -23 93 -16 293 19 759 -56 1117 -179 174
-60 178 -61 115 -31 -30 14 -64 35 -75 45 -56 52 -471 153 -744 180 -109 11
-438 11 -506 1z"/>
<path d="M5390 2970 c8 -5 20 -10 25 -10 6 0 3 5 -5 10 -8 5 -19 10 -25 10 -5
0 -3 -5 5 -10z"/>
<path d="M3491 2856 c2 -2 42 -11 89 -20 222 -44 439 -143 625 -285 l60 -46
-33 42 c-59 75 -281 200 -455 257 -106 35 -307 71 -286 52z"/>
<path d="M5630 2856 c0 -3 9 -10 20 -16 11 -6 20 -8 20 -6 0 3 -9 10 -20 16
-11 6 -20 8 -20 6z"/>
<path d="M1281 2784 c0 -11 3 -14 6 -6 3 7 2 16 -1 19 -3 4 -6 -2 -5 -13z"/>
<path d="M5860 2726 c0 -2 7 -7 16 -10 8 -3 12 -2 9 4 -6 10 -25 14 -25 6z"/>
<path d="M4310 2466 c0 -2 8 -10 18 -17 15 -13 16 -12 3 4 -13 16 -21 21 -21
13z"/>
<path d="M5101 1396 c-1 -28 -1 -28 -27 -11 -14 9 -28 15 -30 13 -2 -3 12 -58
31 -124 89 -299 118 -449 119 -609 1 -119 26 -480 42 -622 l5 -43 440 0 439 0
0 270 0 269 -42 43 c-24 24 -42 46 -40 51 1 4 -3 7 -9 7 -5 0 -7 5 -3 12 5 8
2 9 -9 5 -10 -3 -17 -2 -17 3 0 9 -50 60 -163 168 -19 17 -40 32 -47 32 -7 0
-11 3 -8 6 6 5 -74 84 -85 84 -4 0 -19 12 -35 28 -16 15 -43 38 -62 52 -45 34
-78 61 -107 88 -13 12 -29 23 -35 25 -5 1 -22 13 -38 27 -51 46 -75 66 -110
90 -19 13 -43 31 -52 41 -10 10 -39 32 -65 50 -27 18 -49 36 -51 41 -2 4 -10
8 -17 8 -7 0 -16 6 -18 13 -3 6 -6 -1 -6 -17z"/>
<path d="M1480 740 c8 -5 20 -10 25 -10 6 0 3 5 -5 10 -8 5 -19 10 -25 10 -5
0 -3 -5 5 -10z"/>
</g>
</svg>
